<svg width="398" height="246" viewBox="0 0 398 246" fill="none" xmlns="http://www.w3.org/2000/svg">
<path d="M119.659 178.043C119.814 178.014 119.998 178.051 120.168 178.1C120.525 178.204 121.021 178.427 121.598 178.718C122.759 179.304 124.329 180.212 125.937 181.153C127.55 182.098 129.203 183.079 130.547 183.82C131.219 184.191 131.806 184.499 132.268 184.711C132.499 184.817 132.693 184.896 132.847 184.948C133.01 185.002 133.099 185.015 133.133 185.014C133.238 185.009 133.448 184.934 133.774 184.746C134.086 184.567 134.462 184.31 134.884 184C135.729 183.38 136.728 182.567 137.718 181.774C138.701 180.986 139.679 180.217 140.464 179.701C140.855 179.444 141.214 179.238 141.512 179.127C141.66 179.072 141.813 179.033 141.956 179.032C142.078 179.032 142.236 179.058 142.379 179.179L142.439 179.237L142.502 179.316C142.558 179.399 142.596 179.488 142.62 179.553C142.658 179.652 142.692 179.767 142.723 179.889C142.784 180.133 142.845 180.45 142.906 180.819C143.027 181.561 143.153 182.563 143.28 183.728C143.533 186.061 143.794 189.083 144.029 192.072C144.263 195.062 144.472 198.024 144.622 200.238C144.697 201.345 144.757 202.266 144.799 202.909C144.82 203.231 144.837 203.483 144.848 203.656C144.853 203.742 144.857 203.808 144.86 203.852C144.861 203.874 144.862 203.891 144.863 203.903C144.863 203.908 144.864 203.915 144.864 203.915L144.864 203.919L144.879 204.155L144.734 204.291L144.732 204.293C144.732 204.293 144.729 204.297 144.726 204.299C144.721 204.304 144.714 204.311 144.704 204.32C144.684 204.338 144.655 204.366 144.616 204.403C144.538 204.476 144.423 204.584 144.272 204.725C143.971 205.007 143.529 205.422 142.965 205.949C141.837 207.002 140.222 208.508 138.273 210.313C134.377 213.923 129.146 218.734 123.81 223.535C118.475 228.335 113.032 233.127 108.712 236.701C106.553 238.487 104.669 239.973 103.217 241.003C102.492 241.518 101.868 241.923 101.369 242.196C101.119 242.332 100.894 242.439 100.699 242.51C100.511 242.578 100.32 242.624 100.149 242.607C99.8746 242.58 99.4407 242.405 98.9173 242.151C98.3759 241.888 97.6873 241.516 96.8766 241.051C95.2538 240.12 93.1228 238.808 90.6636 237.243C85.7443 234.112 79.4965 229.954 73.3399 225.766C67.1832 221.577 61.1145 217.356 56.5534 214.096C54.2733 212.466 52.3675 211.075 51.015 210.047C50.3394 209.534 49.7976 209.108 49.4152 208.787C49.2249 208.628 49.0682 208.489 48.9524 208.376C48.895 208.32 48.841 208.264 48.7964 208.21C48.7638 208.171 48.6924 208.083 48.6496 207.966C48.6021 207.836 48.5578 207.645 48.5156 207.436C48.4711 207.217 48.4222 206.942 48.37 206.622C48.2653 205.981 48.1443 205.146 48.0167 204.187C47.7613 202.267 47.4759 199.838 47.2287 197.451C46.9817 195.066 46.7721 192.716 46.6707 190.956C46.6202 190.079 46.5957 189.335 46.6084 188.804C46.6146 188.543 46.6306 188.308 46.6632 188.13C46.679 188.043 46.7038 187.939 46.749 187.847C46.7916 187.761 46.8951 187.604 47.0869 187.596L47.176 187.601C47.2668 187.614 47.3607 187.646 47.4372 187.675C47.5551 187.72 47.6966 187.785 47.8545 187.863C48.1713 188.019 48.5771 188.241 49.0363 188.505C49.9559 189.033 51.11 189.738 52.2373 190.442C53.3654 191.147 54.4699 191.853 55.2924 192.382C55.7037 192.647 56.0449 192.867 56.283 193.022C56.3713 193.079 56.4455 193.127 56.5039 193.165C56.5913 193.124 56.7153 193.067 56.8704 192.995C57.2001 192.842 57.6719 192.623 58.2402 192.358C59.3773 191.83 60.9009 191.12 62.4456 190.394C63.9904 189.669 65.5561 188.928 66.7784 188.338C67.3896 188.043 67.9138 187.787 68.3062 187.589C68.7109 187.385 68.9487 187.257 69.0113 187.213L69.1079 187.16C69.2109 187.119 69.3306 187.117 69.454 187.18C69.5971 187.253 69.6918 187.388 69.7497 187.491C69.8645 187.696 69.9449 187.978 70.0064 188.254C70.1343 188.827 70.2318 189.618 70.3048 190.396C70.3786 191.182 70.43 191.981 70.4632 192.581C70.4798 192.882 70.4921 193.134 70.5 193.311C70.5003 193.318 70.5003 193.325 70.5006 193.332C70.5272 193.353 70.5569 193.376 70.5892 193.402C70.7647 193.539 71.023 193.742 71.3525 193.998C72.0115 194.512 72.9565 195.246 74.1009 196.124C76.3904 197.881 79.4764 200.218 82.6634 202.534C85.8517 204.852 89.1358 207.146 91.8231 208.823C93.1675 209.662 94.3555 210.341 95.3029 210.791C95.7767 211.016 96.1832 211.181 96.5148 211.279C96.8543 211.38 97.0826 211.402 97.2169 211.378C97.3731 211.349 97.6099 211.255 97.9292 211.079C98.243 210.906 98.6176 210.666 99.0448 210.365C99.8993 209.764 100.949 208.932 102.124 207.947C104.472 205.976 107.301 203.403 110.032 200.843C112.762 198.285 115.391 195.744 117.338 193.843C118.311 192.893 119.114 192.102 119.673 191.549C119.952 191.273 120.171 191.056 120.32 190.908C120.351 190.878 120.379 190.849 120.403 190.825L119.261 178.662C119.247 178.511 119.275 178.342 119.376 178.212C119.466 178.097 119.579 178.057 119.659 178.043Z" fill="#F2EE00"/>
<path d="M32.4784 62.7783C32.7783 62.8035 32.9862 63.1006 33.105 63.3228C33.2468 63.5883 33.372 63.9487 33.4862 64.361C33.717 65.1937 33.9364 66.3661 34.144 67.7464C34.5605 70.5145 34.9419 74.2027 35.2641 77.8807C35.5867 81.5615 35.8511 85.2439 36.0354 88.005C36.1276 89.3855 36.1997 90.537 36.2487 91.3428C36.2732 91.7456 36.2923 92.0629 36.3049 92.2789C36.3112 92.3864 36.3155 92.4693 36.3187 92.5251C36.3203 92.5528 36.3217 92.5747 36.3225 92.5889C36.3229 92.5958 36.3231 92.6015 36.3233 92.605L36.3238 92.6104L36.3414 92.9204L36.1171 93.0322L36.115 93.0332C36.115 93.0332 36.1111 93.0356 36.1082 93.0371C36.102 93.0401 36.0927 93.0447 36.0807 93.0508C36.0563 93.0631 36.02 93.0816 35.9727 93.1056C35.8777 93.1539 35.7372 93.225 35.559 93.317C35.2024 93.5011 34.692 93.7684 34.0767 94.0987C32.8455 94.7598 31.1961 95.6749 29.5234 96.6904C27.849 97.7071 26.1588 98.8202 24.8409 99.8773C24.1815 100.406 23.6233 100.915 23.2091 101.384C22.7849 101.864 22.5504 102.261 22.478 102.556C22.4407 102.708 22.408 102.987 22.3878 103.406C22.3679 103.816 22.3613 104.334 22.3673 104.945C22.3794 106.166 22.4413 107.744 22.543 109.562C22.7464 113.197 23.1072 117.771 23.5353 122.331C23.9634 126.891 24.4586 131.431 24.9313 134.997C25.1677 136.781 25.3982 138.316 25.6105 139.485C25.7167 140.07 25.8175 140.558 25.911 140.936C26.0077 141.328 26.0875 141.564 26.1422 141.673C26.1861 141.76 26.3168 141.932 26.5806 142.192C26.8327 142.441 27.1715 142.737 27.589 143.075C28.4232 143.75 29.5476 144.573 30.8665 145.489C33.5034 147.322 36.896 149.514 40.2501 151.624C43.6033 153.733 46.9147 155.759 49.3878 157.257C50.6243 158.005 51.6513 158.623 52.3689 159.052C52.7276 159.267 53.009 159.436 53.2007 159.55C53.2425 159.575 53.2804 159.597 53.3135 159.616L78.5099 141.309L77.8894 134.699C77.8622 134.41 77.9406 134.153 78.1175 133.984C78.2717 133.837 78.4729 133.783 78.66 133.764C79.0388 133.726 79.5545 133.82 80.1289 133.982C81.2923 134.311 82.8488 134.964 84.3937 135.681C85.9428 136.399 87.4972 137.189 88.6632 137.799C89.2465 138.104 89.7336 138.364 90.0747 138.548C90.2138 138.623 90.3288 138.686 90.4161 138.734C90.4731 138.683 90.5448 138.621 90.6285 138.548C90.8661 138.341 91.2059 138.049 91.614 137.707C92.4297 137.023 93.5225 136.137 94.6253 135.337C95.722 134.542 96.851 133.814 97.7334 133.462C98.165 133.29 98.5911 133.184 98.9427 133.255C99.1268 133.292 99.3195 133.384 99.4754 133.575C99.6343 133.769 99.7135 134.017 99.7375 134.272L101.53 153.364L79.7286 171.907L79.7233 171.912L79.7219 171.913L79.7193 171.915C79.7168 171.917 79.7127 171.92 79.7079 171.924C79.6978 171.932 79.6821 171.945 79.6624 171.961C79.6227 171.993 79.5637 172.041 79.487 172.103C79.3332 172.228 79.1072 172.41 78.8189 172.643C78.2421 173.108 77.4151 173.772 76.415 174.57C74.4147 176.165 71.7201 178.293 68.9451 180.425C66.1708 182.556 63.3123 184.694 60.9849 186.306C59.8219 187.111 58.7866 187.789 57.9586 188.27C57.5449 188.51 57.1774 188.704 56.8691 188.84C56.5703 188.972 56.2951 189.065 56.0758 189.074C55.943 189.079 55.7791 189.043 55.6124 188.994C55.4372 188.942 55.226 188.866 54.9841 188.768C54.4996 188.572 53.8715 188.284 53.1246 187.918C51.6297 187.185 49.6383 186.129 47.3211 184.85C42.6852 182.291 36.7319 178.828 30.8138 175.234C24.8963 171.64 19.0088 167.912 14.5052 164.826C12.2543 163.284 10.3424 161.897 8.94395 160.764C8.24567 160.199 7.66769 159.69 7.23703 159.253C7.0218 159.035 6.83679 158.828 6.69069 158.635C6.54882 158.448 6.42349 158.249 6.3495 158.047C6.23601 157.735 6.12274 157.2 6.00655 156.519C5.88763 155.822 5.75818 154.927 5.62072 153.867C5.34566 151.746 5.03533 148.944 4.70506 145.703C4.04441 139.22 3.30356 130.961 2.60954 122.833C1.91546 114.704 1.26789 106.703 0.793936 100.735C0.556979 97.7511 0.36334 95.2747 0.228979 93.5445C0.161815 92.6796 0.109293 92.0004 0.0737151 91.5381C0.055951 91.3072 0.0419366 91.1295 0.032794 91.0102C0.0282607 90.9511 0.0253364 90.9058 0.0230284 90.8755C0.0218972 90.8607 0.021125 90.8491 0.020545 90.8414L0.0195342 90.8307C0.0195342 90.8307 0.0195659 90.8296 0.387726 90.8247L0.0195342 90.8307L0 90.5766L0.160699 90.4395C6.55491 84.9599 14.1084 78.0869 20.3016 72.5662C23.3961 69.8077 26.1523 67.3852 28.2507 65.6477C29.2991 64.7796 30.1884 64.0782 30.8758 63.5901C31.2191 63.3464 31.5183 63.1514 31.7646 63.0154C31.9961 62.8875 32.2266 62.785 32.4171 62.7772L32.4784 62.7783Z" fill="#00EE43"/>
<path d="M118.048 45.9787L169.773 78.4539L169.966 78.5757L169.995 78.8357L169.629 78.8605C169.995 78.8355 169.995 78.8357 169.995 78.8357L169.996 78.8473C169.997 78.855 169.998 78.8666 170 78.8814C170.003 78.9116 170.008 78.9568 170.015 79.0159C170.028 79.135 170.047 79.3125 170.073 79.543C170.124 80.0046 170.2 80.6826 170.295 81.5459C170.485 83.2728 170.756 85.7444 171.079 88.7211C171.724 94.6752 172.577 102.654 173.406 110.748C174.235 118.841 175.041 127.054 175.592 133.477C175.868 136.688 176.08 139.456 176.2 141.539C176.259 142.581 176.296 143.457 176.306 144.133C176.316 144.789 176.302 145.313 176.241 145.611C176.202 145.804 176.11 146 176.005 146.184C175.895 146.377 175.749 146.591 175.575 146.823C175.226 147.288 174.742 147.849 174.148 148.488C172.959 149.767 171.304 151.384 169.338 153.208C165.405 156.859 160.21 161.362 154.968 165.703C149.726 170.045 144.431 174.229 140.298 177.245C138.234 178.751 136.453 179.971 135.111 180.773C134.442 181.172 133.872 181.474 133.427 181.654C133.205 181.744 133.002 181.809 132.827 181.837C132.667 181.863 132.466 181.871 132.287 181.767C131.123 181.09 123.861 177.245 116.52 173.282C112.854 171.303 109.171 169.297 106.231 167.649C103.308 166.01 101.079 164.703 100.351 164.131C99.9811 163.84 99.6956 163.526 99.5489 163.159C99.3863 162.753 99.4267 162.367 99.5669 162.04C99.6974 161.737 99.9211 161.463 100.165 161.21C100.414 160.952 100.717 160.682 101.032 160.399C102.319 159.241 103.891 157.765 104.162 155.189C104.188 154.943 104.19 154.461 104.167 153.772C104.144 153.095 104.099 152.247 104.037 151.291C103.913 149.379 103.726 147.042 103.53 144.775C103.335 142.509 103.132 140.314 102.977 138.686C102.9 137.872 102.835 137.199 102.789 136.73C102.767 136.496 102.749 136.312 102.736 136.188C102.73 136.126 102.725 136.078 102.722 136.046L102.718 135.997L102.639 135.204L130.068 152.335C130.093 152.315 130.122 152.295 130.152 152.272C130.316 152.146 130.556 151.961 130.862 151.724C131.474 151.25 132.35 150.569 133.403 149.738C135.509 148.075 138.325 145.816 141.162 143.427C144 141.036 146.855 138.52 149.043 136.344C150.137 135.256 151.057 134.259 151.724 133.41C152.057 132.985 152.322 132.604 152.511 132.273C152.705 131.935 152.803 131.678 152.834 131.501C152.914 131.032 152.951 130.167 152.942 128.966C152.933 127.778 152.88 126.297 152.791 124.616C152.613 121.254 152.293 117.111 151.903 112.954C151.513 108.797 151.052 104.63 150.594 101.222C150.365 99.5179 150.137 98.0064 149.919 96.7828C149.7 95.5499 149.496 94.6376 149.319 94.1137C149.251 93.9098 149.105 93.6456 148.86 93.3228C148.618 93.004 148.297 92.65 147.904 92.2657C147.116 91.4973 146.062 90.6323 144.824 89.7093C142.348 87.8643 139.171 85.8138 135.995 83.8721C132.821 81.9314 129.657 80.1037 127.21 78.704C125.988 78.005 124.942 77.4107 124.167 76.9647C123.494 76.5779 122.998 76.2846 122.771 76.1308C122.771 76.1308 122.765 76.1315 122.762 76.1321C122.7 76.1442 122.604 76.1755 122.47 76.2332C122.203 76.3475 121.834 76.5448 121.37 76.8201C120.444 77.3693 119.177 78.2068 117.669 79.242C114.656 81.3119 110.71 84.1576 106.676 87.0383C102.644 89.9171 98.526 92.8304 95.1771 95.0299C93.5031 96.1293 92.016 97.0538 90.8255 97.7071C90.2307 98.0335 89.7049 98.2956 89.2637 98.4776C88.831 98.6561 88.4493 98.7709 88.1546 98.7776C86.1769 98.8224 83.7958 97.948 81.7075 96.932C79.6092 95.9111 77.7615 94.7244 76.8349 94.0991C76.2034 93.6729 75.8875 92.7325 75.7148 91.7654C75.5357 90.762 75.4797 89.5487 75.4755 88.3494C75.4712 87.1457 75.5201 85.9262 75.5587 84.9095C75.5982 83.8684 75.6242 83.0846 75.5872 82.6903C75.572 82.528 75.6184 82.3979 75.6445 82.334C75.6762 82.2566 75.7186 82.1813 75.7627 82.1121C75.852 81.9723 75.9792 81.8095 76.133 81.6297C76.4427 81.2675 76.8952 80.7967 77.4651 80.2381C78.607 79.1188 80.2439 77.6206 82.2074 75.8772C86.1356 72.3891 91.3875 67.9063 96.6419 63.4803C101.897 59.0538 107.157 54.6825 111.104 51.4182C113.077 49.7861 114.721 48.4305 115.873 47.483C116.449 47.0093 116.901 46.6372 117.209 46.3839C117.364 46.2573 117.482 46.1603 117.562 46.0949C117.602 46.0623 117.632 46.0367 117.652 46.0201C117.662 46.012 117.67 46.0062 117.675 46.002L117.68 45.9973L117.682 45.9954L117.852 45.8561L118.048 45.9787Z" fill="#2E1BBF"/>
<path d="M77.8235 0.00141843C78.026 0.00986619 78.2632 0.056089 78.5256 0.130425C79.0517 0.279517 79.7271 0.554535 80.5214 0.928996C82.1127 1.67923 84.2299 2.85366 86.6836 4.31181C91.5935 7.22966 97.8852 11.3015 104.088 15.4301C110.292 19.5595 116.412 23.7494 120.981 26.907C123.266 28.4857 125.163 29.8064 126.488 30.7325C127.151 31.1955 127.671 31.5604 128.026 31.8091C128.203 31.9334 128.339 32.0291 128.43 32.0934C128.476 32.1255 128.511 32.1494 128.534 32.1657C128.546 32.1738 128.555 32.1804 128.561 32.1845C128.564 32.1865 128.567 32.1896 128.567 32.1896L128.569 32.1904C128.569 32.1904 128.555 32.2266 128.408 32.586L128.569 32.1904L128.752 32.319L130.026 45.8917C130.05 46.1445 130.003 46.3924 129.854 46.5768C129.718 46.7454 129.534 46.8145 129.365 46.8417C129.032 46.8953 128.585 46.8114 128.099 46.6672C127.11 46.3736 125.763 45.7665 124.367 45.1045C122.959 44.4368 121.497 43.7105 120.239 43.1518C119.612 42.8731 119.044 42.6402 118.569 42.4804C118.085 42.3175 117.732 42.2426 117.516 42.2514C117.08 42.2691 116.544 42.5962 115.911 43.1911C115.29 43.7754 114.631 44.5635 113.947 45.4001C113.27 46.229 112.568 47.1058 111.882 47.8365C111.199 48.5624 110.498 49.1818 109.812 49.4643C109.559 49.5686 109.229 49.5225 108.9 49.4294C108.554 49.3314 108.137 49.1593 107.667 48.9312C106.726 48.4741 105.528 47.77 104.167 46.9097C101.443 45.1879 98.028 42.8125 94.6412 40.4533C91.2493 38.0906 87.8856 35.7442 85.2495 34.0717C83.9304 33.2347 82.8044 32.5733 81.9539 32.1634C81.5274 31.9579 81.1832 31.8226 80.9254 31.7568C80.7968 31.724 80.7003 31.7114 80.6317 31.712C80.5602 31.7128 80.5423 31.7272 80.5505 31.7216C73.4524 36.6208 67.9233 40.5329 63.9616 43.4579C59.9847 46.3941 57.621 48.3127 56.8198 49.2332C56.8179 49.2359 56.7962 49.2667 56.7682 49.3587C56.74 49.4517 56.7127 49.5827 56.6889 49.7563C56.6414 50.104 56.6135 50.5796 56.6074 51.1744C56.5954 52.3622 56.6681 53.97 56.8026 55.8611C57.0714 59.6404 57.5851 64.508 58.1524 69.3236C58.7195 74.1373 59.339 78.8925 59.8165 82.4445C60.0552 84.2202 60.2586 85.6955 60.4022 86.7263C60.4739 87.2415 60.531 87.6463 60.5699 87.9217C60.5796 87.9906 60.5883 88.0519 60.5957 88.1044L87.3822 106.114L96.9897 98.5565L99.6304 126.681L99.4826 126.824L99.4805 126.825L99.4759 126.83C99.4718 126.834 99.4654 126.84 99.4574 126.848C99.4414 126.864 99.4177 126.887 99.3868 126.917C99.3246 126.977 99.233 127.065 99.1166 127.176C98.8836 127.4 98.5495 127.718 98.1467 128.099C97.3413 128.861 96.2583 129.872 95.1508 130.871C94.0446 131.868 92.9084 132.856 91.9976 133.57C91.5435 133.926 91.137 134.221 90.8143 134.414C90.6541 134.509 90.5029 134.587 90.3704 134.633C90.3042 134.656 90.2322 134.675 90.1595 134.681C90.0913 134.686 89.9909 134.681 89.8862 134.623C89.4923 134.406 77.4368 127.518 65.3565 120.46C59.3156 116.93 53.2651 113.356 48.6612 110.552C46.3598 109.15 44.4164 107.938 43.0158 107.02C42.3163 106.561 41.7474 106.172 41.3354 105.868C41.13 105.716 40.9577 105.581 40.8259 105.466C40.7603 105.409 40.6995 105.353 40.6482 105.299C40.6015 105.249 40.5419 105.18 40.4952 105.097C40.4217 104.966 40.3685 104.775 40.3279 104.611C40.2814 104.423 40.2311 104.182 40.1771 103.895C40.069 103.321 39.9421 102.537 39.7998 101.579C39.5149 99.661 39.1654 97.0199 38.7802 93.8963C38.0098 87.6478 37.0941 79.453 36.2579 71.213C35.4217 62.9738 34.6643 54.6837 34.2122 48.2456C33.9863 45.0277 33.8365 42.265 33.7911 40.2009C33.7684 39.17 33.7713 38.3039 33.8055 37.6391C33.8226 37.3072 33.8479 37.017 33.8831 36.7777C33.9169 36.5476 33.9653 36.3277 34.0427 36.1615C34.1692 35.8904 34.4513 35.5372 34.8165 35.1367C35.1944 34.7222 35.6995 34.2174 36.3099 33.6368C37.5314 32.4748 39.1917 30.9963 41.1449 29.3126C45.0523 25.9444 50.1444 21.7431 55.2693 17.5857C65.5158 9.27362 75.9108 1.12196 77.2537 0.138992C77.4205 0.0169093 77.6302 -0.0066173 77.8235 0.00141843Z" fill="#F10088"/>
<path d="M181.214 12.3869L186.166 12.2735L182.334 84.882L192.538 84.6484L192.693 95.0581L176.895 95.4197L181.214 12.3869Z" fill="black"/>
<path d="M197.231 12.0203L213.669 11.6441L213.098 22.0704L201.613 22.3332L200.387 46.163L209.652 45.9509L209.036 56.2543L199.857 56.4644L198.394 84.5144L210.221 84.2437L210.376 94.6534L192.913 95.0531L197.231 12.0203Z" fill="black"/>
<path d="M225.276 11.3784L229.162 11.2895L235.859 94.0702L230.65 94.1894L229.081 71.9113L219.517 72.1301L215.807 95.5209L210.89 92.2863L225.276 11.3784ZM228.415 61.6372C227.912 54.6239 227.505 48.2696 227.192 42.5743C226.879 36.7963 226.625 32.174 226.431 28.7074C225.83 32.3575 225.06 37.0446 224.12 42.7686C223.209 48.4919 222.207 54.8372 221.114 61.8043L228.415 61.6372Z" fill="black"/>
<path d="M240.61 10.5316L244.423 11.3121C245.41 10.6284 246.47 10.1083 247.603 9.75174C248.737 9.39521 249.844 9.20457 250.926 9.17982C254.228 9.10425 256.655 11.4454 258.206 16.2033C259.757 20.9612 260.597 27.6775 260.726 36.3523C260.85 44.6965 260.68 52.3864 260.215 59.4218C259.749 66.3747 258.871 72.4278 257.581 77.5813C256.291 82.7348 254.543 86.7831 252.337 89.7261C250.159 92.5859 247.404 94.0539 244.074 94.1301C243.22 94.1497 242.394 94.1273 241.596 94.0629C240.827 94.0805 240.13 94.0964 239.504 94.1108C238.906 94.1244 238.407 94.0945 238.007 94.021C237.637 94.0295 237.438 94.0341 237.41 94.0347L236.3 94.0601L240.61 10.5316ZM249.635 19.9945C248.724 20.0154 247.872 20.1588 247.078 20.4249C246.314 20.6904 245.609 21.161 244.964 21.8369L241.773 83.0257L244.762 82.9573C246.897 82.9085 248.657 81.6285 250.044 79.1175C251.43 76.6064 252.52 73.317 253.314 69.2492C254.135 65.0982 254.691 60.3747 254.983 55.0788C255.273 49.7002 255.376 44.202 255.293 38.5841C255.252 35.8577 255.13 33.3812 254.926 31.1544C254.721 28.8451 254.392 26.8691 253.941 25.2265C253.489 23.584 252.915 22.3161 252.219 21.423C251.521 20.4472 250.659 19.9711 249.635 19.9945Z" fill="black"/>
<path d="M195.694 156.136C195.626 155.394 195.529 154.611 195.403 153.787C195.275 152.881 195.093 152.1 194.855 151.445C194.646 150.788 194.368 150.257 194.02 149.852C193.7 149.364 193.297 149.125 192.813 149.136C191.276 149.171 189.976 150.73 188.911 153.812C187.873 156.811 187.019 160.591 186.346 165.152C185.702 169.712 185.249 174.681 184.987 180.059C184.724 185.354 184.628 190.356 184.698 195.066C184.738 197.792 184.861 200.31 185.066 202.619C185.27 204.846 185.599 206.822 186.051 208.547C186.503 210.19 187.078 211.499 187.776 212.475C188.472 213.368 189.333 213.803 190.358 213.779C190.984 213.765 191.524 213.711 191.978 213.618C192.46 213.442 192.898 213.225 193.292 212.968C193.687 212.711 194.067 212.413 194.432 212.074C194.798 211.735 195.204 211.313 195.652 210.807L196.561 220.207C195.611 221.469 194.573 222.484 193.445 223.254C192.348 224.105 190.888 224.552 189.066 224.594C185.764 224.669 183.338 222.328 181.786 217.57C180.235 212.812 179.395 206.096 179.266 197.421C179.155 189.986 179.361 182.75 179.883 175.713C180.403 168.594 181.249 162.293 182.421 156.812C183.591 151.248 185.091 146.792 186.92 143.444C188.75 140.097 190.931 138.394 193.464 138.336C194.432 138.314 195.263 138.667 195.957 139.395C196.68 140.122 197.264 141.1 197.709 142.33C198.182 143.476 198.558 144.831 198.838 146.395C199.116 147.876 199.31 149.442 199.42 151.092L195.694 156.136Z" fill="black"/>
<path d="M213.713 137.873C217.015 137.797 219.442 140.138 220.993 144.896C222.544 149.654 223.385 156.37 223.514 165.045C223.624 172.48 223.419 179.758 222.898 186.877C222.377 193.914 221.502 200.215 220.275 205.78C219.075 211.262 217.504 215.678 215.56 219.029C213.645 222.378 211.35 224.084 208.675 224.145C205.373 224.221 202.946 221.879 201.395 217.122C199.843 212.364 199.003 205.647 198.874 196.973C198.764 189.537 198.969 182.301 199.491 175.264C200.012 168.145 200.872 161.844 202.072 156.362C203.299 150.797 204.87 146.339 206.785 142.99C208.728 139.64 211.038 137.934 213.713 137.873ZM212.422 148.687C210.885 148.722 209.584 150.281 208.519 153.363C207.482 156.362 206.627 160.142 205.954 164.703C205.31 169.263 204.857 174.232 204.596 179.61C204.333 184.905 204.236 189.908 204.306 194.617C204.347 197.343 204.47 199.861 204.675 202.17C204.879 204.397 205.207 206.373 205.66 208.098C206.111 209.741 206.686 211.05 207.384 212.026C208.081 212.919 208.941 213.354 209.966 213.33C211.503 213.295 212.79 211.778 213.828 208.779C214.892 205.697 215.747 201.876 216.391 197.315C217.063 192.755 217.53 187.785 217.792 182.407C218.054 177.029 218.15 171.986 218.08 167.277C218.04 164.633 217.919 162.198 217.715 159.971C217.51 157.662 217.181 155.686 216.73 154.043C216.277 152.318 215.702 151.009 215.006 150.116C214.308 149.14 213.447 148.664 212.422 148.687Z" fill="black"/>
<path d="M246.048 138.124L250.82 140.246L246.736 221.786L242.936 221.873L235.428 179.4C234.995 177.096 234.543 174.462 234.072 171.498C233.6 168.451 233.159 165.609 232.75 162.974C232.703 165.62 232.646 168.431 232.576 171.408C232.505 174.302 232.404 177.073 232.272 179.721L230.175 222.537L225.403 220.415L229.491 139.123L233.333 139.035L240.663 181.016C241.097 183.403 241.551 186.161 242.025 189.291C242.525 192.337 242.995 195.178 243.433 197.812C243.503 194.918 243.574 191.983 243.643 189.006C243.741 186.028 243.846 183.464 243.956 181.313L246.048 138.124Z" fill="black"/>
<path d="M262.628 136.753C263.908 136.724 264.968 137.154 265.807 138.044C266.646 138.934 267.333 140.116 267.867 141.592C268.401 142.985 268.808 144.546 269.09 146.275C269.401 148.003 269.639 149.692 269.806 151.341L266.292 156.256C266.167 155.515 266.026 154.651 265.869 153.662C265.712 152.674 265.512 151.728 265.271 150.825C265.029 149.839 264.704 149.061 264.297 148.492C263.917 147.839 263.414 147.52 262.788 147.535C262.218 147.548 261.682 147.849 261.178 148.439C260.702 148.946 260.285 149.658 259.929 150.575C259.572 151.492 259.289 152.573 259.08 153.818C258.899 155.062 258.82 156.427 258.842 157.914C258.864 159.401 258.941 160.722 259.072 161.876C259.231 163.029 259.431 164.058 259.673 164.961C259.942 165.864 260.239 166.684 260.563 167.42C260.888 168.157 261.255 168.933 261.666 169.75L265.19 176.984C266.248 179.191 267.171 181.897 267.959 185.102C268.747 188.307 269.177 192.347 269.25 197.221C269.312 201.435 269.054 205.16 268.476 208.396C267.925 211.549 267.168 214.253 266.205 216.506C265.24 218.677 264.126 220.314 262.861 221.417C261.625 222.52 260.337 223.087 259 223.117C257.946 223.141 256.975 222.916 256.085 222.44C255.195 221.965 254.376 221.405 253.626 220.761C252.903 220.034 252.237 219.264 251.627 218.451C251.045 217.638 250.521 216.865 250.055 216.132L252.027 205.178C253.02 206.808 254.068 208.395 255.173 209.94C256.307 211.485 257.471 212.243 258.667 212.216C260.261 212.179 261.526 211.117 262.463 209.03C263.428 206.859 263.877 203.543 263.81 199.081C263.767 196.19 263.505 193.84 263.022 192.033C262.54 190.226 261.843 188.383 260.933 186.503L257.627 179.636C256.335 177.021 255.312 174.276 254.558 171.401C253.832 168.525 253.432 164.65 253.36 159.775C253.306 156.14 253.5 152.912 253.942 150.092C254.384 147.272 255.018 144.902 255.844 142.983C256.697 140.98 257.699 139.469 258.852 138.451C260.003 137.35 261.261 136.784 262.628 136.753Z" fill="black"/>
<path d="M280.285 137.961L277.624 188.848C277.494 191.578 277.445 194.017 277.477 196.165C277.552 201.205 278.037 205.078 278.931 207.785C279.853 210.409 281.082 211.703 282.619 211.668C283.558 211.646 284.39 211.09 285.114 209.999C285.837 208.825 286.468 207.241 287.008 205.245C287.575 203.166 288.037 200.717 288.394 197.899C288.751 195.081 289.018 191.976 289.195 188.583L291.855 137.696L296.808 137.582L294.122 189.586C293.901 193.889 293.506 197.989 292.938 201.886C292.369 205.783 291.58 209.19 290.57 212.105C289.56 215.021 288.313 217.364 286.83 219.133C285.347 220.903 283.581 221.811 281.532 221.858C279.938 221.894 278.577 221.347 277.45 220.216C276.323 219.084 275.388 217.494 274.646 215.445C273.932 213.395 273.398 210.969 273.043 208.168C272.688 205.366 272.486 202.354 272.439 199.132C272.398 196.406 272.467 193.387 272.646 190.078L275.332 138.074L280.285 137.961Z" fill="black"/>
<path d="M302.587 137.45L307.54 137.337L303.707 209.945L313.911 209.712L314.066 220.121L298.269 220.483L302.587 137.45Z" fill="black"/>
<path d="M320.748 137.034L340.772 136.576L340.158 147.004L332.943 147.169L329.196 219.775L324.243 219.888L328.033 147.281L320.902 147.444L320.748 137.034Z" fill="black"/>
<path d="M342.739 136.531L347.692 136.418L343.374 219.451L338.421 219.564L342.739 136.531Z" fill="black"/>
<path d="M369.559 135.298L374.331 137.42L370.247 218.96L366.447 219.047L358.94 176.574C358.507 174.27 358.055 171.635 357.583 168.671C357.111 165.624 356.67 162.783 356.261 160.147C356.215 162.793 356.157 165.604 356.087 168.581C356.016 171.475 355.915 174.246 355.784 176.894L353.687 219.71L348.914 217.588L353.002 136.296L356.845 136.208L364.174 178.189C364.608 180.576 365.062 183.334 365.536 186.464C366.037 189.51 366.506 192.351 366.944 194.986C367.015 192.091 367.085 189.156 367.155 186.179C367.253 183.202 367.357 180.637 367.467 178.486L369.559 135.298Z" fill="black"/>
<path d="M392.218 208.043C391.447 211.78 390.381 214.738 389.018 216.918C387.683 219.015 386.204 220.082 384.581 220.119C382.076 220.176 380.12 217.866 378.712 213.187C377.332 208.426 376.576 201.666 376.446 192.909C376.336 185.473 376.541 178.237 377.063 171.2C377.612 164.08 378.501 157.779 379.729 152.296C380.985 146.73 382.598 142.272 384.57 138.921C386.542 135.57 388.923 133.863 391.712 133.799C392.68 133.777 393.496 134.089 394.16 134.735C394.853 135.38 395.436 136.276 395.909 137.422C396.38 138.485 396.755 139.758 397.033 141.239C397.31 142.638 397.532 144.161 397.699 145.811L394.016 150.854C393.891 150.113 393.752 149.372 393.598 148.632C393.444 147.809 393.234 147.111 392.969 146.539C392.704 145.966 392.37 145.519 391.967 145.198C391.562 144.794 391.061 144.599 390.463 144.613C389.382 144.637 388.396 145.362 387.506 146.788C386.644 148.212 385.89 150.13 385.242 152.542C384.594 154.871 384.036 157.611 383.571 160.762C383.132 163.83 382.782 167.061 382.519 170.456C382.256 173.85 382.065 177.284 381.946 180.758C381.855 184.231 381.833 187.496 381.878 190.553C381.919 193.279 382.041 195.797 382.247 198.106C382.45 200.333 382.736 202.31 383.103 204.037C383.47 205.682 383.93 206.994 384.486 207.973C385.069 208.868 385.744 209.307 386.513 209.29C387.111 209.276 387.731 208.849 388.373 208.008C389.043 207.083 389.651 205.83 390.197 204.247C390.741 202.581 391.225 200.628 391.647 198.387C392.069 196.146 392.346 193.66 392.476 190.93L393.175 177.65L398 177.539L395.684 222.84C395.504 226.068 395.15 229.051 394.621 231.79C394.122 234.612 393.446 237.065 392.595 239.151C391.743 241.236 390.742 242.871 389.592 244.054C388.472 245.319 387.229 245.968 385.863 245.999C385.037 246.018 384.194 245.789 383.333 245.313C382.5 244.836 381.694 244.235 380.914 243.509C380.135 242.783 379.396 241.973 378.7 241.08C378.033 240.269 377.452 239.497 376.957 238.765L378.543 227.695C379.094 228.344 379.674 229.033 380.283 229.763C380.921 230.575 381.558 231.304 382.194 231.951C382.86 232.679 383.538 233.242 384.227 233.64C384.917 234.12 385.59 234.352 386.245 234.337C387.582 234.307 388.706 233.248 389.614 231.161C390.553 229.156 391.115 226.746 391.301 223.932L392.218 208.043Z" fill="black"/>
</svg>
